<?xml version="1.0" standalone="no"?><!DOCTYPE svg PUBLIC "-//W3C//DTD SVG 1.1//EN" "http://www.w3.org/Graphics/SVG/1.1/DTD/svg11.dtd"><svg t="1528805227764" class="icon" style="" viewBox="0 0 1024 1024" version="1.1" xmlns="http://www.w3.org/2000/svg" p-id="16005" xmlns:xlink="http://www.w3.org/1999/xlink" width="48" height="48"><defs><style type="text/css"></style></defs><path d="M526.719 130.624c-5.293-5.293-20.304-4.862-26.462 0L98.043 448.161c-10.586 10.584-10.586 21.171-5.293 26.464h74.092v370.459c0 31.753 21.169 52.922 52.922 52.922h79.385V580.47h423.387v317.537h79.381c31.757 0 52.927-21.169 52.927-52.922v-370.46h74.092c5.289-5.293 5.289-15.88 0-26.464L526.719 130.624z m402.217 317.537" fill="#515151" p-id="16006"></path><path d="M537.302 739.24H484.38v-52.926H378.535v211.692H643.15V686.314H537.302v52.926z m0 0" fill="#515151" p-id="16007"></path></svg>