<?xml version="1.0" standalone="no"?><!DOCTYPE svg PUBLIC "-//W3C//DTD SVG 1.1//EN" "http://www.w3.org/Graphics/SVG/1.1/DTD/svg11.dtd"><svg t="1543901803316" class="icon" style="" viewBox="0 0 1024 1024" version="1.1" xmlns="http://www.w3.org/2000/svg" p-id="13225" xmlns:xlink="http://www.w3.org/1999/xlink" width="64" height="64"><defs><style type="text/css"></style></defs><path d="M392.52627458 138.8935113H181.45602583C145.6139082 138.8935113 117.73670536 166.77071338 117.73670536 202.61283102v211.07024874c0 35.84211762 27.87720286 63.71932047 63.71932047 63.71932047h211.07024876c35.84211762 0 63.71932047-27.87720286 63.71932047-63.71932047V202.61283102c1.99122888-35.84211762-27.87720286-63.71932047-63.71932047-63.71931972zM663.33338604 467.44625658c15.92983031 15.92983031 33.85088873 21.9035162 53.76317605 21.90351619 19.91228731 0 39.8245754-7.96491477 53.76317681-21.90351619l109.51758178-109.51758176c29.86843174-29.86843174 29.86843174-79.64915078 0-109.51758175l-109.51758178-109.51758177c-29.86843174-29.86843174-79.64915078-29.86843174-109.51758175 0L555.80703239 248.41109307c-29.86843174 29.86843174-29.86843174 79.64915078 0 109.51758175l107.52635365 109.51758176z m-65.71054936-175.22813112l109.51758175-109.51758176c1.99122888-3.98245777 7.96491477-5.97368665 11.94737255-5.97368588 3.98245777 0 7.96491477 1.99122888 11.94737255 5.97368588l109.51758174 109.51758176c5.97368665 5.97368665 5.97368665 17.9210592 0 23.89474508l-109.51758175 109.51758176c-5.97368665 5.97368665-17.9210592 5.97368665-23.89474509 0L597.62283668 316.11287053c-7.96491477-7.96491477-7.96491477-17.9210592 0-23.89474507zM392.52627458 568.99892356H181.45602583c-35.84211762 0-63.71932047 27.87720286-63.71932047 63.71931972v211.07024875c0 35.84211762 27.87720286 63.71932047 63.71932047 63.71932047h211.07024876c35.84211762 0 63.71932047-27.87720286 63.71932047-63.71932047V632.71824327c1.99122888-35.84211762-27.87720286-63.71932047-63.71932047-63.71931971zM824.62291573 568.99892356H613.55266699c-35.84211762 0-63.71932047 27.87720286-63.71932048 63.71931972v211.07024875c0 35.84211762 27.87720286 63.71932047 63.71932048 63.71932047h211.07024874c35.84211762 0 63.71932047-27.87720286 63.71931971-63.71932047V632.71824327c0-35.84211762-27.87720286-63.71932047-63.71931971-63.71931971z" fill="#2c2c2c" p-id="13226"></path></svg>