<?xml version="1.0" standalone="no"?><!DOCTYPE svg PUBLIC "-//W3C//DTD SVG 1.1//EN" "http://www.w3.org/Graphics/SVG/1.1/DTD/svg11.dtd"><svg t="1535351281972" class="icon" style="" viewBox="0 0 1024 1024" version="1.1" xmlns="http://www.w3.org/2000/svg" p-id="2332" xmlns:xlink="http://www.w3.org/1999/xlink" width="320" height="320"><defs><style type="text/css"></style></defs><path d="M512.268258 285.66503c36.75134 0 79.240533 9.371622 126.289088 27.853776 42.367351 16.643256 87.605676 40.59091 130.821828 69.252532 38.612763 25.608396 74.910522 54.598685 102.207304 81.629257 24.222055 23.986562 35.036332 40.179308 38.807302 47.615787-3.761755 7.434431-14.562721 23.628202-38.775561 47.613739-27.283472 27.027501-63.578159 56.014718-102.197066 81.622091-43.214104 28.654455-88.456525 52.595965-130.835139 69.237173-47.055722 18.477035-89.55413 27.845585-126.316732 27.845585-38.518566 0-82.329595-9.405411-130.215688-27.955141-42.874174-16.608444-88.384853-40.540739-131.61022-69.210552-38.417201-25.48041-74.482538-54.420529-101.555089-81.490009-23.934343-23.932296-34.544867-40.097397-38.202186-47.480634 3.724895-7.398595 14.530981-23.632297 38.873854-47.70077 27.373574-27.064361 63.794199-56.056698 102.553378-81.638472 93.587214-61.76793 188.409234-97.194362 260.154927-97.194362m0-46.437296c-193.173373 0-449.144704 208.899227-449.144704 272.892061 0 63.896588 251.87579 272.653495 449.144704 272.653494 189.759739 0 445.73107-208.756907 445.73107-272.772265 0-63.874062-255.971331-272.773289-445.73107-272.77329z" fill="" p-id="2333"></path><path d="M512.268258 398.481834c30.32134 0 58.828355 11.808469 80.269538 33.248628 21.441183 21.441183 33.248628 49.948198 33.248628 80.269538s-11.808469 58.828355-33.248628 80.269538c-21.441183 21.441183-49.948198 33.248628-80.269538 33.248628-30.32134 0-58.828355-11.808469-80.269538-33.248628-21.441183-21.441183-33.248628-49.948198-33.248628-80.269538s11.808469-58.828355 33.248628-80.269538 49.947174-33.248628 80.269538-33.248628m0-46.438319c-88.340826 0-159.956485 71.614635-159.956485 159.956485s71.614635 159.956485 159.956485 159.956485S672.224743 600.34185 672.224743 512s-71.615659-159.956485-159.956485-159.956485z" fill="" p-id="2334"></path></svg>