<?xml version="1.0" standalone="no"?><!DOCTYPE svg PUBLIC "-//W3C//DTD SVG 1.1//EN" "http://www.w3.org/Graphics/SVG/1.1/DTD/svg11.dtd"><svg t="1528354066900" class="icon" style="" viewBox="0 0 1024 1024" version="1.1" xmlns="http://www.w3.org/2000/svg" p-id="813" xmlns:xlink="http://www.w3.org/1999/xlink" width="48" height="48"><defs><style type="text/css"></style></defs><path d="M158.505 134.939h259.23c25.923 0 47.133 21.21 47.133 47.133v259.23c0 25.923-21.21 47.133-47.133 47.133h-259.23c-25.923 0-47.133-21.21-47.133-47.133v-259.23c0-25.923 21.21-47.133 47.133-47.133zM158.505 559.133h259.23c25.923 0 47.133 21.21 47.133 47.133v259.23c0 25.923-21.21 47.133-47.133 47.133h-259.23c-25.923 0-47.133-21.21-47.133-47.133v-259.23c0-25.923 21.21-47.133 47.133-47.133zM606.266 134.939h259.23c25.923 0 47.133 21.21 47.133 47.133v259.23c0 25.923-21.21 47.133-47.133 47.133h-259.23c-25.923 0-47.133-21.21-47.133-47.133v-259.23c0-25.923 21.21-47.133 47.133-47.133zM606.266 559.133h259.23c25.923 0 47.133 21.21 47.133 47.133v259.23c0 25.923-21.21 47.133-47.133 47.133h-259.23c-25.923 0-47.133-21.21-47.133-47.133v-259.23c0-25.923 21.21-47.133 47.133-47.133z" p-id="814" fill="#515151"></path></svg>