<?xml version="1.0" standalone="no"?><!DOCTYPE svg PUBLIC "-//W3C//DTD SVG 1.1//EN" "http://www.w3.org/Graphics/SVG/1.1/DTD/svg11.dtd"><svg t="1528354080481" class="icon" style="" viewBox="0 0 1024 1024" version="1.1" xmlns="http://www.w3.org/2000/svg" p-id="987" xmlns:xlink="http://www.w3.org/1999/xlink" width="48" height="48"><defs><style type="text/css"></style></defs><path d="M590.2 432.5h-79.5V35.2H154.4c-21.9 0-39.7 17.8-39.7 39.7V949c0 21.9 17.8 39.7 39.7 39.7h715.2c21.9 0 39.7-17.8 39.7-39.7V432.5H590.2z" fill="#515151" p-id="988"></path><path d="M590.2 353.1h316.7c-7.8-61.1-33.2-75.4-62.1-104.3-32.8-32.7-55.4-55.4-70.7-70.7l-0.1-0.1 0.1 0.1-1-1-24.2-24.2-1-1 0.1 0.1-0.1-0.1-70.7-70.7C654 58 636 42.4 590.3 37.2l-0.1 315.9z" fill="#515151" p-id="989"></path></svg>