<?xml version="1.0" standalone="no"?><!DOCTYPE svg PUBLIC "-//W3C//DTD SVG 1.1//EN" "http://www.w3.org/Graphics/SVG/1.1/DTD/svg11.dtd"><svg t="1543901839961" class="icon" style="" viewBox="0 0 1034 1024" version="1.1" xmlns="http://www.w3.org/2000/svg" p-id="15727" xmlns:xlink="http://www.w3.org/1999/xlink" width="64.625" height="64"><defs><style type="text/css"></style></defs><path d="M177.632653 15.673469H49.632653C20.897959 15.673469 0 36.571429 0 65.306122v128c0 26.122449 20.897959 49.632653 49.632653 49.632654h128c26.122449 0 49.632653-20.897959 49.632653-49.632654V65.306122C227.265306 36.571429 203.755102 15.673469 177.632653 15.673469zM177.632653 399.673469H49.632653c-26.122449 0-49.632653 20.897959-49.632653 49.632653v128c0 26.122449 20.897959 49.632653 49.632653 49.632654h128c26.122449 0 49.632653-20.897959 49.632653-49.632654v-128c0-26.122449-23.510204-49.632653-49.632653-49.632653zM177.632653 796.734694H49.632653c-26.122449 0-49.632653 20.897959-49.632653 49.632653v128c0 26.122449 20.897959 49.632653 49.632653 49.632653h128c26.122449 0 49.632653-20.897959 49.632653-49.632653v-128c0-28.734694-23.510204-49.632653-49.632653-49.632653zM394.44898 256h566.857142c36.571429 0 65.306122-28.734694 65.306123-65.306122V65.306122c0-36.571429-28.734694-65.306122-65.306123-65.306122H394.44898c-36.571429 0-65.306122 28.734694-65.306123 65.306122v122.775511c-2.612245 39.183673 28.734694 67.918367 65.306123 67.918367z m-18.285715-190.693878c0-10.44898 7.836735-18.285714 18.285715-18.285714h566.857142c10.44898 0 18.285714 7.836735 18.285715 18.285714v122.775511c0 10.44898-7.836735 18.285714-18.285715 18.285714H394.44898c-10.44898 0-18.285714-7.836735-18.285715-18.285714V65.306122zM984.816327 399.673469H370.938776c-26.122449 0-47.020408 20.897959-47.020409 47.020409v133.224489c0 26.122449 20.897959 47.020408 47.020409 47.020409h613.877551c26.122449 0 47.020408-20.897959 47.020408-47.020409v-133.224489c-2.612245-26.122449-23.510204-47.020408-47.020408-47.020409zM984.816327 796.734694H370.938776c-26.122449 0-47.020408 20.897959-47.020409 47.020408v133.22449c0 26.122449 20.897959 47.020408 47.020409 47.020408h613.877551c26.122449 0 47.020408-20.897959 47.020408-47.020408v-133.22449c-2.612245-28.734694-23.510204-47.020408-47.020408-47.020408z" fill="#2c2c2c" p-id="15728"></path></svg>