<?xml version="1.0" standalone="no"?><!DOCTYPE svg PUBLIC "-//W3C//DTD SVG 1.1//EN" "http://www.w3.org/Graphics/SVG/1.1/DTD/svg11.dtd"><svg t="1528430238190" class="icon" style="" viewBox="0 0 1036 1024" version="1.1" xmlns="http://www.w3.org/2000/svg" p-id="21746" xmlns:xlink="http://www.w3.org/1999/xlink" width="48.5625" height="48"><defs><style type="text/css"></style></defs><path d="M784 136c60.8 0 110.4 49.6 110.4 110.4v531.2c0 60.8-49.6 110.4-110.4 110.4h-531.2c-60.8 0-110.4-49.6-110.4-110.4v-531.2c0-60.8 49.6-110.4 110.4-110.4h531.2m0-64h-531.2c-96 0-174.4 78.4-174.4 174.4v531.2c0 96 78.4 174.4 174.4 174.4h531.2c96 0 174.4-78.4 174.4-174.4v-531.2c-1.6-96-78.4-174.4-174.4-174.4z" p-id="21747" fill="#1296db"></path></svg>