<?xml version="1.0" standalone="no"?><!DOCTYPE svg PUBLIC "-//W3C//DTD SVG 1.1//EN" "http://www.w3.org/Graphics/SVG/1.1/DTD/svg11.dtd"><svg t="1528368116593" class="icon" style="" viewBox="0 0 1024 1024" version="1.1" xmlns="http://www.w3.org/2000/svg" p-id="1364" xmlns:xlink="http://www.w3.org/1999/xlink" width="300" height="300"><defs><style type="text/css"></style></defs><path d="M793.2 746.8s-95.6-169.9-347.6-169.9S98 746.8 98 746.8v84.9h695.1l0.1-84.9z" fill="#B0BEC5" p-id="1365"></path><path d="M230.9 318.3a214.3 221.8 0 1 0 428.6 0 214.3 221.8 0 1 0-428.6 0Z" fill="#FFB74D" p-id="1366"></path><path d="M555 739.4c0 102.8 83.3 186.2 186.1 186.3s186.2-83.3 186.3-186.1v-0.1c0-102.8-83.3-186.2-186.1-186.3S555 636.4 555 739.2v0.2z" fill="#43A047" p-id="1367"></path><path d="M825 651.8L718.9 758l-50.3-50.3-39.1 41 89.4 89.4 145.2-145.2-39.1-41.1z" fill="#DCEDC8" p-id="1368"></path></svg>